<svg xmlns="http://www.w3.org/2000/svg" width="24" height="24" viewBox="0 0 24 24">
  <g id="Groupe_42" data-name="Groupe 42" transform="translate(873.918 -420.997)">
    <path id="Tracé_8" data-name="Tracé 8" d="M-861.918,421a12,12,0,0,0-12,12,12,12,0,0,0,12,12,12,12,0,0,0,12-12A12,12,0,0,0-861.918,421Zm6.027,9.725q.009.186.008.374a8.175,8.175,0,0,1-8.231,8.231,8.19,8.19,0,0,1-4.434-1.3,5.884,5.884,0,0,0,.69.04,5.805,5.805,0,0,0,3.593-1.238,2.9,2.9,0,0,1-2.7-2.009,2.89,2.89,0,0,0,.544.052,2.9,2.9,0,0,0,.763-.1,2.894,2.894,0,0,1-2.321-2.836c0-.013,0-.025,0-.037a2.872,2.872,0,0,0,1.31.362,2.891,2.891,0,0,1-1.287-2.408,2.883,2.883,0,0,1,.392-1.454,8.213,8.213,0,0,0,5.963,3.022,2.885,2.885,0,0,1-.075-.66,2.893,2.893,0,0,1,2.893-2.893,2.89,2.89,0,0,1,2.112.914,5.8,5.8,0,0,0,1.837-.7,2.9,2.9,0,0,1-1.272,1.6,5.776,5.776,0,0,0,1.661-.455A5.885,5.885,0,0,1-855.891,430.722Z" fill="#5d50db"/>
  </g>
</svg>
