<svg width="160" height="522" fill="none" xmlns="http://www.w3.org/2000/svg"><g clip-path="url(#clip0)" fill="#fff"><path d="M48 324.1c0 6.2-3.2 10.7-8.7 12.5-2.2.7-5 1-8.6 1-3.6 0-6.5-.4-8.6-1-5.5-1.8-8.7-6.3-8.7-12.5 0-4.7 2.1-8.8 5.6-10.8.4-.2.8-.3 1.3-.3 1.1 0 2 .9 2 2 0 .8-.4 1.5-1.2 2-2.4 1.7-3.4 3.9-3.4 7.1 0 4.1 2 7 5.8 8.2 1.9.6 3.9.9 7.3.9 3.3 0 5.3-.3 7.2-.9 3.8-1.2 5.8-4 5.8-8.2 0-3.2-1.1-5.5-3.5-7.1-.8-.5-1.2-1.2-1.2-2 0-1.1.9-2 2-2 .5 0 .9.1 1.3.3 3.5 2 5.6 6 5.6 10.8zm0-25.9c0 7-3.9 11.5-10 11.5-6.5 0-10.1-4.5-10.1-12.7v-8.3h-2.4c-5.7 0-8 2.3-8 8.1 0 2.9 1 5.6 2 7.2.3.4.5 1 .5 1.5 0 1.2-.9 2.1-2.1 2.1-.7 0-1.3-.3-1.8-.9-1.8-2.3-2.8-6.1-2.8-10.1 0-8.3 3.8-12.2 12-12.2h13.1c1.8 0 2.4-.2 3.3-.6l2.5-1.3c.3-.1.8-.3 1.2-.3 1.3 0 2.1.9 2.1 2.3 0 .9-.4 1.6-1.3 2.1l-2.3 1.4c2.9 2.5 4.1 5.6 4.1 10.2zm-15.9-1.7c0 6.2 1.8 8.8 6 8.8 4.8 0 5.8-4.2 5.8-7.7 0-5.5-2.6-9-6.8-9h-4.8l-.2 7.9zM47.6 253c0 1.4-.9 2.2-2.4 2.2H27.1c-6.3 0-9.4 2.7-9.4 8.1 0 5 3.6 8.5 8.7 8.5h18.9c1.5 0 2.4.9 2.4 2.2 0 1.4-.9 2.2-2.4 2.2H16.2c-1.4 0-2.4-.9-2.4-2.2 0-1.4.9-2.2 2.4-2.2h1.2c-2.6-2-3.9-5.2-3.9-9.3 0-7.4 4.8-11.8 12.8-11.8h19.1c1.3.1 2.2.9 2.2 2.3zm0-20.7v.9c0 6.3-2.5 8.7-9.1 8.7H18.2v2.7c0 1.3-.8 2.1-2 2.1s-2-.8-2-2.1v-2.7H5.9c-1.4 0-2.4-.9-2.4-2.2 0-1.4.9-2.2 2.4-2.2h8.3v-5.2c0-1.3.8-2.1 2-2.1s2 .8 2 2.1v5.2h20.2c3.9 0 4.9-1.1 4.9-5.1 0-1.4.9-2.3 2.1-2.3 1.3-.1 2.2.8 2.2 2.2zm.4-18.7c0 6.1-3.2 10.7-8.7 12.5-2.5.8-5 1.1-8.6 1.1-3.6 0-6.1-.3-8.6-1.1-5.5-1.8-8.7-6.4-8.7-12.5 0-6.2 3.2-10.7 8.7-12.6 2.5-.8 5-1.1 8.6-1.1 3.6 0 6.1.3 8.6 1.1 5.6 1.9 8.7 6.5 8.7 12.6zm-30.3 0c0 4 2.1 7 5.8 8.2 1.9.6 3.9.9 7.2.9 3.3 0 5.4-.2 7.2-.9 3.7-1.2 5.8-4.2 5.8-8.2 0-4.1-2.1-7.1-5.8-8.3-1.9-.6-3.9-.9-7.2-.9-3.3 0-5.3.2-7.2.9-3.7 1.3-5.8 4.2-5.8 8.3zm29.9-43.1c0 1.4-.9 2.2-2.4 2.2H27.1c-6.3 0-9.4 2.7-9.4 8.1 0 5 3.6 8.5 8.7 8.5h18.9c1.5 0 2.4.9 2.4 2.2 0 1.3-.9 2.2-2.4 2.2H16.2c-1.4 0-2.4-.9-2.4-2.2 0-1.4.9-2.2 2.4-2.2h1.2c-2.6-2-3.9-5.2-3.9-9.3 0-7.4 4.8-11.8 12.8-11.8h19.1c1.3.1 2.2.9 2.2 2.3zm.4-32.8c0 5.6-3 9.8-8.3 11.5-2.8.9-5.3 1.2-9 1.2s-6.3-.3-9-1.2c-5.4-1.8-8.3-5.9-8.3-11.5 0-4.4 1.3-7.5 4-9.4h-15c-1.4 0-2.4-.9-2.4-2.2 0-1.3.9-2.2 2.4-2.2h42.9c1.5 0 2.4.9 2.4 2.2 0 1.4-.9 2.2-2.4 2.2h-1.2c2.6 1.9 3.9 5 3.9 9.4zm-30.3-.6c0 3.9 2 6.8 5.6 8 1.9.6 4 .9 7.4.9 3.5 0 5.5-.2 7.4-.9 3.6-1.2 5.6-4 5.6-8 0-4.1-1.9-6.8-5.4-8-1.7-.5-4.4-.8-7.6-.8-3.2 0-5.9.3-7.6.8-3.5 1.2-5.4 3.9-5.4 8zM48 103.8c0 6.5-3 10.9-8.8 12.8-2.3.8-4.6 1-8.6 1-3.8 0-6.2-.3-8.6-1-5.5-1.8-8.7-6.3-8.7-12.4 0-6.1 3.2-10.6 8.7-12.4 2.1-.7 4.6-1 7.9-1 1.2 0 2.1.9 2.1 2.1v20.2c2.8 0 4.1-.1 5.6-.6 4-1.3 6.1-4.4 6.1-8.8 0-3.5-1.1-6.1-3.6-8.5-.5-.5-.8-1.1-.8-1.6 0-1.1.8-2 1.9-2 .6 0 1 .2 1.5.5 3.5 2.5 5.3 6.8 5.3 11.7zm-30.4.5c0 4.1 2.1 7.1 5.9 8.3 1.3.4 2.7.6 4.5.6V95.4c-1.9 0-3.3.1-4.6.6-3.7 1.1-5.8 4.1-5.8 8.3zm134.7 201.1l-80.4 30.9c-1.2.4-2 .6-2.9.6-2.5 0-5.1-1.8-5.1-5.3 0-2.7 1.8-4.3 3.9-5.1l73.5-28.2v-.2l-73.5-27.6c-2.1-.8-3.9-2.4-3.9-5.1 0-3.5 2.5-5.3 5.1-5.3 1 0 1.8.2 2.9.6l80.4 30.9c4.9 1.8 6.5 3.5 6.5 6.9-.1 3.3-1.7 5.1-6.5 6.9zm1.3-127.1c2.9 0 5.1 2.1 5.1 5.5 0 2.1-1 3.7-3.3 5.1l-7.4 4.5v.4c7.6 6.9 11.9 15.1 11.9 29.7 0 18-9.8 31.9-27.6 31.9-18.4 0-27.8-12.9-27.8-35.4v-23.9c0-.8-.4-1.2-1.2-1.2h-6.6c-15.5 0-24.1 5.9-24.1 24.3 0 8 2.7 16 5.9 21.3.8 1.2 1.2 2.5 1.2 3.7 0 2.9-2 4.9-4.9 4.9-1.6 0-3.1-.8-4.3-2.1-4.3-5.7-7.8-15.6-7.8-28.4 0-23.1 10.4-33.8 33.2-33.8h37.7c5.3 0 7.2-.6 10-2l7-3.7c.9-.4 2-.8 3-.8zm-24.4 16.6h-13.9c-.8 0-1.2.4-1.2 1.2v22.3c0 18.6 5.7 26.4 18.2 26.4 11.5 0 17.6-8 17.6-23.1 0-16-7.8-26.8-20.7-26.8zm23.8-93.2h-6.5v.2c8.4 5.3 13.3 14.1 13.3 27.2 0 20.5-12.9 32.3-35.6 32.3H69.5c-3.7 0-5.7-2.1-5.7-5.3 0-3.2 2-5.3 5.7-5.3h52.2c18.6 0 28-7.8 28-24.1 0-14.1-10-25-26-25H69.5c-3.7 0-5.7-2.1-5.7-5.3 0-3.2 2-5.3 5.7-5.3H153c3.7 0 5.7 2.1 5.7 5.3 0 3.1-1.9 5.3-5.7 5.3zm0-91.1h-6.9v.2c8 4.5 13.7 12.7 13.7 28 0 15.8-8.4 27.2-23.1 32.1-7.6 2.3-14.9 3.3-25.6 3.3-10.6 0-17.8-1-25.4-3.3C71 66 62.6 54.7 62.6 38.8c0-15.3 5.7-23.5 13.7-28v-.2H29.8c-3.7 0-5.7-2.2-5.7-5.3C24.1 2.2 26 0 29.8 0H153c3.7 0 5.7 2.2 5.7 5.3 0 3.1-1.9 5.3-5.7 5.3zm-19.5 2.3c-5.1-1.6-12.9-2.3-22.3-2.3-9.2 0-17 .8-22.1 2.3-11 3.7-16.2 12.3-16.2 24 0 11.9 6.3 20.3 16.8 23.9 6.1 2 12.3 2.5 21.5 2.5 9.4 0 15.6-.6 21.7-2.5 10.6-3.5 16.8-11.9 16.8-23.9 0-11.7-5.3-20.3-16.2-24zm26 341.8c0-1.3-1.1-2.3-2.4-2.3H17c-1.3 0-2.4 1-2.4 2.3 0 .1-.2 6.8.1 16.6.2 9 .8 22.5 2.6 35.9.6 5.1 1.6 10.3 2.9 15.5H20l.8 3c3.1 12 7.8 23.9 14 35.1 8.6 15.7 20.2 31.1 35.5 47 1 1 1.9 2 2.7 2.8 2.6 2.7 4.9 5.1 6.8 6.9 3 2.8 5.2 4.1 7.2 4.2h.4c2.1-.1 4.1-1.4 7.1-4.2 1.6-1.5 3.4-3.4 5.6-5.6 1.2-1.3 2.5-2.6 4-4.1 15.3-16 26.9-31.3 35.5-47 6.2-11.3 11-23.1 14.1-35.1l.8-3c1.3-5.2 2.2-10.4 2.9-15.5 1.3-10.6 2.1-22.7 2.4-35.9-.1-9.8-.3-16.5-.3-16.6zm-83 152.7c-.9-.9-1.8-1.9-2.7-2.9-15-15.6-26.4-30.6-34.8-46-3.5-6.4-6.5-13-9.1-19.8l56.6 78c-.7-.3-1.8-1-3.5-2.7-1.8-1.6-4-3.9-6.5-6.6zm14.6 6.7c-.7.6-1.2 1.1-1.7 1.5l-62.7-86.3c-.2-.6-.4-1.2-.5-1.8h8l60.4 83.1c-1.3 1.4-2.4 2.5-3.5 3.5zm5.6-5.7l-58.8-80.9h8.8l55 75.7c-.4.4-.8.8-1.2 1.3-1.4 1.4-2.6 2.7-3.8 3.9zm37.6-80.9l9.4 12.9c-1 2.6-2.1 5.1-3.2 7.7l-15-20.6h8.8zm-12.5 0l17.2 23.7c-1.1 2.4-2.4 4.8-3.6 7.1L113 427.5h8.8zm-12.5 0l24.5 33.7c-1.3 2.2-2.6 4.4-4 6.6l-29.3-40.3h8.8zm-12.5 0l31.2 43c-1.4 2.1-2.8 4.2-4.3 6.2L88 427.5h8.8zm-12.5 0l37.6 51.8c-1.5 2-3 3.9-4.5 5.9l-41.9-57.7h8.8zm-12.5 0l43.7 60.1c-1.5 1.9-3.1 3.8-4.7 5.6L63 427.5h8.8zm-12.5 0l49.5 68.1c-1.6 1.8-3.2 3.6-4.9 5.4l-53.4-73.5h8.8zm85.7 9.6l-6.9-9.5h10c-1 3.1-2 6.3-3.1 9.5zm9.7-65.9c-.3 13-1.1 25-2.4 35.4-.7 5.3-1.7 10.7-3 16.1H24.9c-1.4-5.5-2.3-10.8-3-16.1-1.7-13.2-2.3-26.5-2.5-35.4-.1-6.3-.1-11.3-.1-14h135.5c0 2.7.1 7.7-.1 14z"/><path d="M44.3 368.1c0-.7.4-1.1 1-1.1s1 .4 1 1.1v12.1c0 .1 0 .1.1.1h6.5c.6 0 1 .4 1 .9s-.4.9-1 .9h-7.6c-.6 0-1-.4-1-1v-13zm13.1 0c0-.7.4-1.1 1-1.1s1 .4 1 1.1v13.1c0 .7-.4 1.1-1 1.1s-1-.4-1-1.1v-13.1zm7-.1c0-.5.3-.9.9-.9h4.6c3 0 4.5 1.5 4.5 3.9 0 1.7-.8 2.8-2 3.3 1.1.3 2.3 1.5 2.3 3.5 0 2.8-1.8 4.3-4.8 4.3h-4.6c-.5 0-.9-.3-.9-.9V368zm5.5 5.6c1.6 0 2.6-1 2.6-2.3 0-1.4-1-2.4-2.6-2.4h-3.4c-.1 0-.1 0-.1.1v4.4c0 .1 0 .1.1.1l3.4.1zm-3.4 6.7H70c1.8 0 2.8-1 2.8-2.5s-1-2.5-2.8-2.5h-3.5c-.1 0-.1 0-.1.1v4.7c0 .2 0 .2.1.2zM79 368c0-.5.3-.9.9-.9h7.7c.6 0 1 .4 1 .9s-.4.9-1 .9h-6.5c-.1 0-.1 0-.1.1v4.4c0 .1 0 .1.1.1h5.4c.6 0 1 .4 1 .9s-.4.9-1 .9h-5.4c-.1 0-.1 0-.1.1v4.5c0 .1 0 .1.1.1h6.5c.6 0 1 .4 1 .9s-.4.9-1 .9h-7.7c-.5 0-.9-.4-.9-.9V368zm13.7 13.1V368c0-.5.3-.9.9-.9h4.7c2.9 0 4.7 1.7 4.7 4.3 0 2-1.1 3.5-2.8 4l2.7 5.3c.1.2.1.3.1.5 0 .5-.4.9-1 .9-.4 0-.7-.2-1-.6l-3-5.8h-3.3c-.1 0-.1 0-.1.1v5.3c0 .7-.4 1.1-1 1.1-.5 0-.9-.4-.9-1.1zm8.4-9.7c0-1.6-1-2.5-2.8-2.5h-3.5c-.1 0-.1 0-.1.1v4.7c0 .1 0 .1.1.1h3.5c1.8.1 2.8-.8 2.8-2.4zm15-4.3c.6 0 1 .4 1 .9s-.4.9-1 .9h-3.5c-.1 0-.1 0-.1.1v12.1c0 .7-.4 1.1-1 1.1s-1-.4-1-1.1V369c0-.1 0-.1-.1-.1H107c-.6 0-1-.4-1-.9s.4-.9 1-.9h9.1zm4.6.9c0-.5.3-.9.9-.9h7.7c.6 0 1 .4 1 .9s-.4.9-1 .9h-6.5c-.1 0-.1 0-.1.1v4.4c0 .1 0 .1.1.1h5.4c.6 0 1 .4 1 .9s-.4.9-1 .9h-5.4c-.1 0-.1 0-.1.1v4.5c0 .1 0 .1.1.1h6.5c.6 0 1 .4 1 .9s-.4.9-1 .9h-7.7c-.5 0-.9-.4-.9-.9V368zm5.5-5.5c.1-.2.3-.3.6-.3.4 0 .8.3.8.7 0 .2-.1.4-.2.6l-1.5 1.7c-.2.2-.4.3-.7.3-.4 0-.7-.3-.7-.7 0-.2.1-.4.2-.6l1.5-1.7zM79 387c0-.4.2-.6.6-.6H85c.4 0 .7.3.7.7 0 .4-.3.7-.7.7h-4.4c-.1 0-.1 0-.1.1v2.6c0 .1 0 .1.1.1h3.7c.4 0 .7.3.7.7 0 .4-.3.7-.7.7h-3.7c-.1 0-.1 0-.1.1v2.7c0 .1 0 .1.1.1H85c.4 0 .7.3.7.7 0 .4-.3.7-.7.7h-5.4c-.4 0-.6-.2-.6-.6V387zm16-.6c.4 0 .7.3.7.7 0 .3-.3.7-.7.7h-2.4c-.1 0-.1 0-.1.1v7.6c0 .5-.3.8-.7.8-.4 0-.7-.3-.7-.8v-7.6c0-.1 0-.1-.1-.1h-2.4c-.4 0-.7-.3-.7-.7 0-.4.3-.7.7-.7H95zm-43 14.8c0-.5.3-.9.9-.9h4.6c3 0 4.8 1.8 4.8 4.5s-1.8 4.5-4.8 4.5h-3.4c-.1 0-.1 0-.1.1v5c0 .7-.4 1.1-1 1.1s-1-.4-1-1.1v-13.2zm8.4 3.6c0-1.6-1.1-2.6-2.9-2.6h-3.3c-.1 0-.1 0-.1.1v5c0 .1 0 .1.1.1h3.3c1.8 0 2.9-1 2.9-2.6zm3.5 9.3l4.6-12.7c.2-.7.6-1.1 1.3-1.1.7 0 1.1.4 1.3 1.1l4.5 12.7c0 .1.1.3.1.4 0 .5-.4.9-.9.9-.4 0-.8-.2-1-.7l-1-2.9h-6.1l-1 2.9c-.1.5-.5.7-1 .7s-.9-.4-.9-.9c0-.1.1-.3.1-.4zm8.3-4.1l-2.4-6.8h-.1l-2.4 6.8h4.9zm14.3-9.7c.6 0 1 .4 1 .9s-.4.9-1 .9H83c-.1 0-.1 0-.1.1v12.1c0 .7-.4 1.1-1 1.1s-1-.4-1-1.1v-12.1c0-.1 0-.1-.1-.1h-3.5c-.6 0-1-.4-1-.9s.4-.9 1-.9h9.2zm4.5 14.1v-13.1c0-.5.3-.9.9-.9h4.7c2.9 0 4.7 1.7 4.7 4.3 0 2-1.1 3.5-2.8 4l2.7 5.3c.1.2.1.3.1.5 0 .5-.4.9-1 .9-.4 0-.7-.2-1-.6l-3-5.8H93c-.1 0-.1 0-.1.1v5.3c0 .7-.4 1.1-1 1.1-.5-.1-.9-.5-.9-1.1zm8.4-9.8c0-1.6-1-2.5-2.8-2.5h-3.5c-.1 0-.1 0-.1.1v4.7c0 .1 0 .1.1.1h3.5c1.8.1 2.8-.8 2.8-2.4zm6.5-3.3c0-.7.4-1.1 1-1.1s1 .4 1 1.1v13.1c0 .7-.4 1.1-1 1.1s-1-.4-1-1.1v-13.1zm7-.1c0-.5.3-.9.9-.9h7.7c.6 0 1 .4 1 .9s-.4.9-1 .9H115c-.1 0-.1 0-.1.1v4.4c0 .1 0 .1.1.1h5.4c.6 0 1 .4 1 .9s-.4.9-1 .9H115c-.1 0-.1 0-.1.1v4.5c0 .1 0 .1.1.1h6.5c.6 0 1 .4 1 .9s-.4.9-1 .9h-7.7c-.5 0-.9-.4-.9-.9v-12.9z"/></g><defs><clipPath id="clip0"><path fill="#fff" d="M0 0h159.9v521.8H0z"/></clipPath></defs></svg>